<mxGraphModel dx="1422" dy="795" grid="1" gridSize="10" guides="1" tooltips="1" connect="1" arrows="1" fold="1" page="1" pageScale="1" pageWidth="850" pageHeight="1100" math="0" shadow="0">
  <root>
    <mxCell id="0" />
    <mxCell id="1" parent="0" />
    <mxCell id="4x8Yvbpx_Nvwn2mP5vuP-22" value="" style="edgeStyle=orthogonalEdgeStyle;rounded=0;orthogonalLoop=1;jettySize=auto;html=1;" edge="1" parent="1" source="auuYeCAxz7LAwCTdT31Y-20" target="4x8Yvbpx_Nvwn2mP5vuP-21">
      <mxGeometry relative="1" as="geometry" />
    </mxCell>
    <mxCell id="auuYeCAxz7LAwCTdT31Y-20" value="Начало&lt;br&gt;&lt;span style=&quot;background-color: rgb(255 , 255 , 255)&quot;&gt;Менеджер соединений&lt;/span&gt;" style="strokeWidth=2;html=1;shape=mxgraph.flowchart.terminator;whiteSpace=wrap;" parent="1" vertex="1">
      <mxGeometry x="280" y="10" width="160" height="80" as="geometry" />
    </mxCell>
    <mxCell id="4x8Yvbpx_Nvwn2mP5vuP-26" value="" style="edgeStyle=orthogonalEdgeStyle;rounded=0;orthogonalLoop=1;jettySize=auto;html=1;" edge="1" parent="1" source="4x8Yvbpx_Nvwn2mP5vuP-3" target="4x8Yvbpx_Nvwn2mP5vuP-8">
      <mxGeometry relative="1" as="geometry" />
    </mxCell>
    <mxCell id="4x8Yvbpx_Nvwn2mP5vuP-3" value="Принять входящее соединение" style="rounded=0;whiteSpace=wrap;html=1;" vertex="1" parent="1">
      <mxGeometry x="280" y="210" width="160" height="80" as="geometry" />
    </mxCell>
    <mxCell id="4x8Yvbpx_Nvwn2mP5vuP-24" value="" style="edgeStyle=orthogonalEdgeStyle;rounded=0;orthogonalLoop=1;jettySize=auto;html=1;" edge="1" parent="1" source="4x8Yvbpx_Nvwn2mP5vuP-8" target="4x8Yvbpx_Nvwn2mP5vuP-23">
      <mxGeometry relative="1" as="geometry" />
    </mxCell>
    <mxCell id="4x8Yvbpx_Nvwn2mP5vuP-8" value="Запустить обработчик клиента в новом потоке" style="rounded=0;whiteSpace=wrap;html=1;" vertex="1" parent="1">
      <mxGeometry x="280" y="320" width="160" height="80" as="geometry" />
    </mxCell>
    <mxCell id="4x8Yvbpx_Nvwn2mP5vuP-25" value="" style="edgeStyle=orthogonalEdgeStyle;rounded=0;orthogonalLoop=1;jettySize=auto;html=1;" edge="1" parent="1" source="4x8Yvbpx_Nvwn2mP5vuP-21" target="4x8Yvbpx_Nvwn2mP5vuP-3">
      <mxGeometry relative="1" as="geometry" />
    </mxCell>
    <mxCell id="4x8Yvbpx_Nvwn2mP5vuP-35" style="edgeStyle=orthogonalEdgeStyle;rounded=0;orthogonalLoop=1;jettySize=auto;html=1;" edge="1" parent="1" source="4x8Yvbpx_Nvwn2mP5vuP-21" target="4x8Yvbpx_Nvwn2mP5vuP-27">
      <mxGeometry relative="1" as="geometry" />
    </mxCell>
    <mxCell id="4x8Yvbpx_Nvwn2mP5vuP-21" value="Сокет сервера &lt;br&gt;активен" style="rhombus;whiteSpace=wrap;html=1;" vertex="1" parent="1">
      <mxGeometry x="280" y="110" width="160" height="80" as="geometry" />
    </mxCell>
    <mxCell id="4x8Yvbpx_Nvwn2mP5vuP-34" style="edgeStyle=orthogonalEdgeStyle;rounded=0;orthogonalLoop=1;jettySize=auto;html=1;" edge="1" parent="1" source="4x8Yvbpx_Nvwn2mP5vuP-23">
      <mxGeometry relative="1" as="geometry">
        <mxPoint x="360" y="100" as="targetPoint" />
        <Array as="points">
          <mxPoint x="360" y="530" />
          <mxPoint x="480" y="530" />
          <mxPoint x="480" y="100" />
        </Array>
      </mxGeometry>
    </mxCell>
    <mxCell id="4x8Yvbpx_Nvwn2mP5vuP-23" value="Сохранить дескриптор потока" style="rounded=0;whiteSpace=wrap;html=1;" vertex="1" parent="1">
      <mxGeometry x="280" y="430" width="160" height="80" as="geometry" />
    </mxCell>
    <mxCell id="4x8Yvbpx_Nvwn2mP5vuP-31" value="" style="edgeStyle=orthogonalEdgeStyle;rounded=0;orthogonalLoop=1;jettySize=auto;html=1;" edge="1" parent="1" source="4x8Yvbpx_Nvwn2mP5vuP-27" target="4x8Yvbpx_Nvwn2mP5vuP-28">
      <mxGeometry relative="1" as="geometry" />
    </mxCell>
    <mxCell id="4x8Yvbpx_Nvwn2mP5vuP-27" value="Ожидание завершения всех запущенных потоков" style="rounded=0;whiteSpace=wrap;html=1;" vertex="1" parent="1">
      <mxGeometry x="60" y="210" width="160" height="80" as="geometry" />
    </mxCell>
    <mxCell id="4x8Yvbpx_Nvwn2mP5vuP-32" value="" style="edgeStyle=orthogonalEdgeStyle;rounded=0;orthogonalLoop=1;jettySize=auto;html=1;" edge="1" parent="1" source="4x8Yvbpx_Nvwn2mP5vuP-28" target="4x8Yvbpx_Nvwn2mP5vuP-29">
      <mxGeometry relative="1" as="geometry" />
    </mxCell>
    <mxCell id="4x8Yvbpx_Nvwn2mP5vuP-28" value="Закрытие дескрипторов запущенных потоков" style="rounded=0;whiteSpace=wrap;html=1;" vertex="1" parent="1">
      <mxGeometry x="60" y="320" width="160" height="80" as="geometry" />
    </mxCell>
    <mxCell id="4x8Yvbpx_Nvwn2mP5vuP-29" value="Конец&lt;br&gt;&lt;span style=&quot;background-color: rgb(255 , 255 , 255)&quot;&gt;Менеджер соединений&lt;/span&gt;" style="strokeWidth=2;html=1;shape=mxgraph.flowchart.terminator;whiteSpace=wrap;" vertex="1" parent="1">
      <mxGeometry x="60" y="430" width="160" height="80" as="geometry" />
    </mxCell>
    <mxCell id="4x8Yvbpx_Nvwn2mP5vuP-33" value="Да" style="text;html=1;align=center;verticalAlign=middle;resizable=0;points=[];autosize=1;" vertex="1" parent="1">
      <mxGeometry x="360" y="190" width="30" height="20" as="geometry" />
    </mxCell>
    <mxCell id="4x8Yvbpx_Nvwn2mP5vuP-36" value="Нет" style="text;html=1;align=center;verticalAlign=middle;resizable=0;points=[];autosize=1;" vertex="1" parent="1">
      <mxGeometry x="240" y="130" width="40" height="20" as="geometry" />
    </mxCell>
  </root>
</mxGraphModel>
